<?xml version="1.0" encoding="UTF-8"?>
<svg width="185px" height="185px" viewBox="0 0 185 185" version="1.1" xmlns="http://www.w3.org/2000/svg" xmlns:xlink="http://www.w3.org/1999/xlink">
    <!-- Generator: Sketch 52.2 (67145) - http://www.bohemiancoding.com/sketch -->
    <title>pie-chart</title>
    <desc>Created with Sketch.</desc>
    <g id="pie-chart" stroke="none" stroke-width="1" fill="none" fill-rule="evenodd">
        <path d="M92.5,175 C70.258,175 50.087,166.183 35.25,151.872 L28.166,158.955 C44.814,175.075 67.497,185 92.5,185 C117.504,185 140.186,175.075 156.834,158.955 L149.75,151.872 C134.913,166.183 114.742,175 92.5,175" id="Fill-3" fill="#F1C45B"></path>
        <path d="M151.8721,149.75 L158.9551,156.834 C174.7521,140.52 184.5931,118.409 184.9811,94 L174.9621,94 C174.5741,115.646 165.8581,135.248 151.8721,149.75" id="Fill-8" fill="#EFEBE4"></path>
        <path d="M174.9619,91 L184.9819,91 C184.5929,66.59 174.7519,44.48 158.9549,28.166 L151.8719,35.25 C165.8579,49.751 174.5739,69.354 174.9619,91" id="Fill-5" fill="#F0DDB4"></path>
        <path d="M10,92.5 C10,46.937 46.937,10 92.5,10 C114.742,10 134.913,18.818 149.75,33.128 L156.834,26.044 C140.186,9.925 117.504,0 92.5,0 C41.414,0 0,41.414 0,92.5 C0,117.504 9.925,140.186 26.044,156.834 L33.128,149.75 C18.818,134.913 10,114.742 10,92.5" id="Fill-1" fill="#FFB200"></path>
    </g>
</svg>